<?xml version="1.0" standalone="no"?>
<!DOCTYPE svg PUBLIC "-//W3C//DTD SVG 1.1//EN" "http://www.w3.org/Graphics/SVG/1.1/DTD/svg11.dtd">
<svg version="1.1" xmlns="http://www.w3.org/2000/svg" viewBox="0 0 2000 500">
    <polygon fill="#1EC6AA" points="1644.5,-21.75 1744.5,-11.75 1804.5,218.25" />
    <polygon fill="#07AD91" points="1124.5,-21.75 854.5,198.25 944.5,228.25" />
    <polygon fill="#46CEB4" points="1434.5,-21.75 1644.5,-21.75 1524.5,158.25" />
    <polygon fill="#5ED3BD" points="1434.5,-21.75 1344.5,138.25 1524.5,158.25" />
    <polygon fill="#46CEB4" points="1124.5,-21.75 1434.5,-21.75 1344.5,138.25" />
    <polyline fill="#5ED3BD" points="1084.5,148.25 1124.5,-21.75 1344.5,138.25" />
    <polygon fill="#5ED3BD" points="1034.5,268.25 1194.5,58.25 1354.5,288.25" />
    <polygon fill="#80DDCB" points="1434.5,148.25 1354.5,288.25 1194.5,58.25" />
    <polygon fill="#97E8DA" points="1434.5,148.25 1534.5,288.25 1354.5,288.25" />
    <polygon fill="#1EC6AA" points="1124.5,-21.75 954.5,198.25 1094.5,158.25" />
    <polygon fill="#5ED3BD" points="1644.5,-21.75 1804.5,218.25 1524.5,158.25" />
    <polygon fill="#80DDCB" points="1634.5,88.25 1434.5,148.25 1534.5,288.25" />
    <polygon fill="#46CEB4" points="934.5,218.25 1034.5,278.25 1194.5,58.25" />
    <polygon fill="#97E8DA" points="1784.5,248.25 1534.5,288.25 1634.5,88.25" />
    <polygon fill="#A7EADD" points="1044.5,188.25 1344.5,248.25 1244.5,488.25" />
    <polygon fill="#B6F2E7" points="1484.5,518.25 1244.5,488.25 1344.5,248.25" />
    <polygon fill="#A7EADD" points="1584.5,258.25 1344.5,248.25 1484.5,518.25" />
    <polygon fill="#B6F2E7" points="1744.5,228.25 1484.5,518.25 1584.5,258.25" />
    <polygon fill="#97E8DA" points="1824.5,538.25 1744.5,228.25 1484.5,518.25" />
    <polygon fill="#80DDCB" points="884.5,498.25 1044.5,188.25 1244.5,488.25" />
    <polygon fill="#46CEB4" points="1634.5,88.25 1904.5,228.25 1784.5,278.25" />
    <polyline fill="#1EC6AA" points="884.5,498.25 814.5,178.25 1044.5,188.25" />
    <polygon fill="#07AD91" points="624.5,508.25 814.5,178.25 884.5,498.25" />
    <polygon fill="#5ED3BD" points="1904.5,228.25 1744.5,228.25 1824.5,538.25" />
    <polygon fill="#1EC6AA" points="2004.5,528.25 1904.5,228.25 1824.5,538.25" />
</svg>